<svg id="Capa_1" enable-background="new 0 0 512.002 512.002" height="512" viewBox="0 0 512.002 512.002" width="512" xmlns="http://www.w3.org/2000/svg"><g><path d="m157.271 26.615c-.069-3.745-1.522-7.47-4.38-10.328-3.635-3.635-8.671-5.01-13.37-4.134-2.732-2.862-6.574-4.653-10.843-4.653s-8.111 1.792-10.843 4.653c-4.699-.876-9.735.498-13.37 4.134-2.858 2.858-4.311 6.583-4.38 10.328-2.889 2.734-4.7 6.594-4.7 10.885 0 8.284 6.716 15 15 15h36.586c8.284 0 15-6.716 15-15 0-4.291-1.811-8.151-4.7-10.885z" fill="#40211d"/><path d="m128.678 52.5v90c24.853 0 45-20.147 45-45s-20.147-45-45-45z" fill="#85453d"/><path d="m143.678 97.5c0-24.853-6.716-45-15-45-24.853 0-45 20.147-45 45s20.147 45 45 45c8.284 0 15-20.147 15-45z" fill="#a45e43"/><path d="m153.501 172.5h-30v120h50v-100c0-11.046-8.954-20-20-20z" fill="#49c9ff"/><path d="m143.501 192.5c0-11.046-8.954-20-20-20h-20c-11.045 0-20 8.954-20 20v100h60z" fill="#7dd9ff"/><path d="m173.501 262.5s22.22 25 26 75c0 0-14.02 8.59-40.99 12.77l-15.01-87.77z" fill="#029965"/><path d="m143.501 262.5s14.68 24.95 15.01 87.77c-8.67 1.34-18.69 2.23-30.01 2.23-46.51 0-71-15-71-15 3.78-50 26-75 26-75z" fill="#30b054"/><path d="m383.501 262.5v75c24.853 0 45-20.147 45-45z" fill="#116f97"/><path d="m398.501 292.5-15-30-45 30c0 24.853 20.147 45 45 45 8.284 0 15-20.147 15-45z" fill="#1990c2"/><path d="m408.501 172.5h-30l20 120h30v-100c0-11.046-8.954-20-20-20z" fill="#a8e5ff"/><path d="m378.501 172.5h-20c-11.046 0-20 8.954-20 20v100h60v-100c0-11.046-8.954-20-20-20z" fill="#dbf4ff"/><path d="m383.501 52.5v90c24.853 0 45-20.147 45-45s-20.147-45-45-45z" fill="#85453d"/><path d="m398.501 97.5c0-24.853-6.716-45-15-45-24.853 0-45 20.147-45 45s20.147 45 45 45c8.284 0 15-20.147 15-45z" fill="#a45e43"/><path d="m76.178 97.5c0 28.949 23.551 52.5 52.5 52.5s52.5-23.551 52.5-52.5c0-17.087-8.209-32.288-20.885-41.881 5.562-4.1 9.179-10.694 9.179-18.119 0-5.115-1.781-10.098-4.962-14.07-.723-4.702-2.908-9.04-6.315-12.447-4.317-4.317-10.149-6.671-16.158-6.585-3.844-2.857-8.471-4.398-13.359-4.398s-9.515 1.541-13.358 4.398c-5.997-.083-11.842 2.269-16.158 6.585-3.407 3.407-5.593 7.746-6.315 12.447-3.181 3.971-4.962 8.955-4.962 14.07 0 7.425 3.617 14.018 9.179 18.118-12.677 9.593-20.886 24.795-20.886 41.882zm90 0c0 20.678-16.822 37.5-37.5 37.5s-37.5-16.822-37.5-37.5 16.822-37.5 37.5-37.5 37.5 16.822 37.5 37.5zm-55.793-52.5c-4.136 0-7.5-3.364-7.5-7.5 0-2.069.837-4.001 2.356-5.439 1.462-1.384 2.306-3.296 2.343-5.309.036-1.956.812-3.79 2.185-5.162 1.417-1.417 3.33-2.192 5.304-2.192.461 0 .926.042 1.388.129 2.493.465 5.051-.361 6.801-2.195 1.435-1.503 3.359-2.332 5.417-2.332s3.982.828 5.417 2.332c1.75 1.834 4.311 2.661 6.801 2.195 2.442-.456 4.943.315 6.691 2.063 1.373 1.373 2.148 3.207 2.185 5.163.037 2.012.881 3.924 2.342 5.308 1.52 1.439 2.356 3.371 2.356 5.439 0 4.136-3.364 7.5-7.5 7.5z"/><path d="m181.001 259.862v-67.362c0-15.164-12.336-27.5-27.5-27.5h-50c-12.563 0-23.178 8.472-26.452 20h-38.548c-12.407 0-22.5 10.093-22.5 22.5s10.093 22.5 22.5 22.5h37.5v29.862c-5.762 7.573-22.666 33.217-25.979 77.073-.212 2.805 1.163 5.492 3.562 6.961.748.458 13.501 8.091 37.417 12.682v132.517l-24.872 8.291c-3.93 1.31-6.053 5.558-4.744 9.487 1.048 3.143 3.974 5.13 7.114 5.13.786 0 1.586-.125 2.373-.387l30-10c3.063-1.021 5.128-3.887 5.128-7.115v-135.693c6.857.741 14.35 1.192 22.5 1.192s15.643-.451 22.5-1.192v135.692c0 3.228 2.066 6.094 5.128 7.115l30 10c.787.262 1.586.387 2.373.387 3.14 0 6.066-1.988 7.114-5.13 1.31-3.929-.814-8.177-4.744-9.487l-24.872-8.291v-132.516c23.916-4.59 36.669-12.224 37.417-12.682 2.398-1.469 3.773-4.156 3.562-6.961-3.311-43.855-20.215-69.5-25.977-77.073zm-142.5-44.862c-4.136 0-7.5-3.364-7.5-7.5s3.364-7.5 7.5-7.5h37.5v15zm75-20c-4.142 0-7.5 3.358-7.5 7.5 0 6.893-5.607 12.5-12.5 12.5h-2.5v-22.5c0-6.893 5.607-12.5 12.5-12.5h50c6.893 0 12.5 5.607 12.5 12.5v62.5h-75v-25h2.5c15.164 0 27.5-12.336 27.5-27.5 0-4.142-3.358-7.5-7.5-7.5zm15 150c-33.169 0-54.651-8.015-63.077-11.878 3.655-35.011 16.78-56.199 21.753-63.122h82.672c4.988 6.874 18.066 27.86 21.73 63.122-8.424 3.862-29.906 11.878-63.078 11.878z"/><path d="m383.501 150c28.949 0 52.5-23.551 52.5-52.5s-23.551-52.5-52.5-52.5-52.5 23.551-52.5 52.5 23.551 52.5 52.5 52.5zm0-90c20.678 0 37.5 16.822 37.5 37.5s-16.822 37.5-37.5 37.5-37.5-16.822-37.5-37.5 16.822-37.5 37.5-37.5z"/><path d="m473.501 185h-38.548c-3.274-11.528-13.889-20-26.452-20h-50c-15.164 0-27.5 12.336-27.5 27.5v100c0 14.269 5.73 27.22 15 36.692v159.902l-24.872 8.291c-3.93 1.31-6.053 5.557-4.744 9.487 1.048 3.143 3.974 5.13 7.114 5.13.786 0 1.586-.125 2.373-.387l30-10c3.063-1.021 5.128-3.887 5.128-7.115v-154.576c6.824 3.251 14.452 5.076 22.5 5.076s15.676-1.825 22.5-5.076v154.576c0 3.228 2.066 6.094 5.128 7.115l30 10c.787.262 1.586.387 2.373.387 3.14 0 6.066-1.988 7.114-5.13 1.31-3.93-.814-8.177-4.744-9.487l-24.872-8.291v-159.902c9.27-9.472 15-22.423 15-36.692v-62.5h37.5c12.407 0 22.5-10.093 22.5-22.5s-10.091-22.5-22.498-22.5zm-126.745 115h73.491c-3.484 17.096-18.636 30-36.745 30-18.111 0-33.262-12.904-36.746-30zm74.245-15h-75v-92.5c0-6.893 5.607-12.5 12.5-12.5h50c6.893 0 12.5 5.607 12.5 12.5v22.5h-2.5c-6.893 0-12.5-5.607-12.5-12.5 0-4.142-3.358-7.5-7.5-7.5s-7.5 3.358-7.5 7.5c0 15.164 12.336 27.5 27.5 27.5h2.5zm52.5-70h-37.5v-15h37.5c4.136 0 7.5 3.364 7.5 7.5s-3.364 7.5-7.5 7.5z"/><g fill="#49c9ff"><path d="m308.501 230h-15c-4.142 0-7.5-3.358-7.5-7.5s3.358-7.5 7.5-7.5h15c4.142 0 7.5 3.358 7.5 7.5s-3.358 7.5-7.5 7.5z"/><path d="m218.501 230h-15c-4.142 0-7.5-3.358-7.5-7.5s3.358-7.5 7.5-7.5h15c4.142 0 7.5 3.358 7.5 7.5s-3.358 7.5-7.5 7.5z"/><path d="m263.501 230h-15c-4.142 0-7.5-3.358-7.5-7.5s3.358-7.5 7.5-7.5h15c4.142 0 7.5 3.358 7.5 7.5s-3.358 7.5-7.5 7.5z"/></g></g></svg>