<svg id="Capa_1" enable-background="new 0 0 512.018 512.018" height="512" viewBox="0 0 512.018 512.018" width="512" xmlns="http://www.w3.org/2000/svg"><g><path d="m353.515 444.516c-8.284 0-15 6.716-15 15v15l30 15v-30c0-8.284-6.716-15-15-15z" fill="#b3b3b3"/><path d="m91.002 112.878h30v45h-30z" fill="#1990c2"/><path d="m137.502 164.878-16.5-22h-30l7.5 119.638h30c8.284 0 15-6.716 15-15v-64.638c0-6.492-2.105-12.808-6-18z" fill="#ffa754"/><path d="m113.502 247.515v-64.638c0-6.491-2.105-12.807-6-18l-16.5-22-16.5 22c-3.895 5.193-6 11.509-6 18v64.638c0 8.284 6.716 15 15 15h15c8.285 0 15-6.715 15-15z" fill="#ffcb63"/><path d="m413.515 474.516h-30l30 30h30c0-16.569-13.431-30-30-30z" fill="#ffcb63"/><path d="m383.515 474.516h-45c0 16.569 13.432 30 30 30h45c0-16.569-13.431-30-30-30z" fill="#ffe2a8"/><path d="m233.515 367.516h30l15-15v-45h-75z" fill="#116f97"/><path d="m233.515 367.516h-30l-15-15v-45h45z" fill="#1990c2"/><path d="m203.515 247.516 30 90c24.853 0 45-20.147 45-45z" fill="#b3b3b3"/><path d="m188.515 292.516c0 24.853 20.147 45 45 45v-90z" fill="#ccc"/><path d="m263.515 172.504h-30l-30 60.012 30 59.988 45 .012v-90z" fill="#ebebeb"/><path d="m203.515 172.504-15 30.012v90l45-.012v-120z" fill="#fff"/><path d="m193.522 172.504c-11.046 0-20.006 8.966-20.006 20.012v175h30v-195.012z" fill="#2dade3"/><path d="m273.515 172.504h-10v195.011h30v-175c0-11.045-8.954-20.011-20-20.011z" fill="#1990c2"/><path d="m278.515 40.419c.001-2.016-.386-4.066-1.206-6.045-2.703-6.527-9.275-10.275-15.958-9.696.579-6.682-3.17-13.254-9.696-15.958-6.526-2.703-13.824-.707-18.14 4.427-4.316-5.135-11.614-7.131-18.14-4.427-6.526 2.703-10.275 9.275-9.696 15.958-6.683-.579-13.254 3.17-15.958 9.696-.82 1.979-1.207 4.029-1.206 6.045.002 4.633 0 57.096 0 57.096h90s-.002-52.463 0-57.096z" fill="#fff0d3"/><path d="m233.515 52.515v90c24.853 0 45-20.147 45-45s-20.147-45-45-45z" fill="#ff8d7e"/><path d="m248.515 97.515c0-24.853-6.716-45-15-45-24.853 0-45 20.147-45 45s20.147 45 45 45c8.284 0 15-20.147 15-45z" fill="#ffb4a9"/><path d="m128.502 140.377v-27.5c0-4.142-3.357-7.5-7.5-7.5h-30c-4.143 0-7.5 3.358-7.5 7.5v27.5l-15 20c-4.837 6.449-7.5 14.439-7.5 22.5v64.638c0 12.407 10.094 22.5 22.5 22.5h45c12.406 0 22.5-10.093 22.5-22.5v-64.638c0-8.062-2.664-16.053-7.5-22.5zm-15-20v15h-15v-15zm22.5 127.139c0 4.136-3.364 7.5-7.5 7.5h-45c-4.136 0-7.5-3.364-7.5-7.5v-64.638c0-4.836 1.599-9.631 4.5-13.5l14.25-19h22.5l14.25 19c2.902 3.869 4.5 8.663 4.5 13.5z"/><path d="m413.516 467.016h-37.501v-7.5c0-9.777-6.271-18.114-15-21.21v-238.29h7.5c12.406 0 22.5-10.093 22.5-22.5s-10.094-22.5-22.5-22.5h-15c-4.143 0-7.5 3.358-7.5 7.5v22.5h-46.047c-3.273-11.535-13.889-20.012-26.453-20.012h-80c-15.163 0-27.5 12.342-27.5 27.512v175c0 4.142 3.357 7.5 7.5 7.5h22.501v114.094l-24.872 8.291c-3.93 1.31-6.053 5.558-4.743 9.487 1.048 3.143 3.974 5.13 7.114 5.13.786 0 1.586-.124 2.373-.387l30-10c3.063-1.021 5.128-3.887 5.128-7.115v-119.5h45v119.5c0 3.228 2.065 6.094 5.128 7.115l30 10c.787.262 1.587.387 2.373.387 3.14 0 6.066-1.988 7.114-5.13 1.31-3.929-.813-8.177-4.743-9.487l-24.872-8.291v-114.094h22.499c4.143 0 7.5-3.358 7.5-7.5v-167.5h45v238.29c-8.729 3.096-15 11.433-15 21.21l.001 15c0 20.678 16.822 37.5 37.5 37.5h75c4.143 0 7.5-3.358 7.5-7.5 0-20.678-16.823-37.5-37.5-37.5zm-52.501-297h7.5c4.136 0 7.5 3.364 7.5 7.5s-3.364 7.5-7.5 7.5h-7.5zm-149.999 130h45v22.497c-6.468 4.856-14.341 7.503-22.5 7.503-8.16 0-16.033-2.646-22.5-7.502zm45-15h-45v-105.012h45zm-75.001 75v-167.5c0-6.899 5.607-12.512 12.5-12.512h2.501v180.012zm30.001 0v-20.071c6.972 3.308 14.64 5.071 22.5 5.071s15.528-1.762 22.5-5.071v20.071zm74.999 0h-14.999v-180.012h2.499c6.893 0 12.5 5.613 12.5 12.512zm60 99.5c0-4.136 3.364-7.5 7.5-7.5s7.5 3.364 7.5 7.5v7.5h-15zm22.501 37.5c-9.778 0-18.119-6.269-21.215-15h66.215c9.778 0 18.119 6.27 21.215 15z"/><path d="m233.516 150.015c28.948 0 52.5-23.551 52.5-52.5 0 0-.003-52.459 0-57.093.002-3.068-.597-6.069-1.778-8.918-2.912-7.031-8.906-12.013-15.982-13.73-1.717-7.076-6.699-13.07-13.729-15.982-7.032-2.913-14.795-2.196-21.01 1.593-6.218-3.788-13.979-4.504-21.011-1.593-7.03 2.912-12.013 8.907-13.729 15.982-7.074 1.718-13.071 6.7-15.983 13.731-1.18 2.851-1.778 5.851-1.776 8.917.002 4.633 0 57.093 0 57.093-.002 28.949 23.549 52.5 52.498 52.5zm0-15c-20.678 0-37.5-16.822-37.5-37.5s16.822-37.5 37.5-37.5 37.5 16.822 37.5 37.5-16.823 37.5-37.5 37.5zm-37.5-94.6c-.001-1.085.213-2.152.635-3.171 1.393-3.361 4.755-5.416 8.381-5.094 2.209.193 4.385-.603 5.95-2.168 1.566-1.566 2.36-3.744 2.169-5.95-.313-3.622 1.734-6.99 5.095-8.382 3.361-1.394 7.19-.458 9.529 2.324 1.426 1.695 3.527 2.674 5.742 2.674 2.214 0 4.315-.979 5.74-2.675 2.339-2.781 6.166-3.715 9.528-2.323 3.36 1.392 5.407 4.76 5.095 8.382-.191 2.207.603 4.384 2.169 5.95 1.565 1.565 3.735 2.354 5.95 2.168 3.625-.324 6.989 1.733 8.381 5.096.423 1.018.637 2.084.636 3.168-.001 1.755-.001 10.376-.001 20.408-9.537-9.744-22.82-15.807-37.499-15.807s-27.962 6.063-37.499 15.807c0-10.031-.001-18.652-.001-20.407z"/></g></svg>