<svg id="Capa_1" enable-background="new 0 0 512.002 512.002" height="512" viewBox="0 0 512.002 512.002" width="512" xmlns="http://www.w3.org/2000/svg"><g><path d="m286.001 15c-2.255 0-4.385.512-6.303 1.403-2.338-5.243-7.586-8.903-13.697-8.903-3.847 0-7.345 1.461-10 3.842-2.655-2.381-6.153-3.842-10-3.842-6.111 0-11.359 3.66-13.697 8.903-1.918-.891-4.049-1.403-6.303-1.403-8.284 0-15 6.716-15 15v67.5h90v-67.5c0-8.284-6.716-15-15-15z" fill="#60312c"/><path d="m256.001 52.5v90c24.853 0 45-20.147 45-45s-20.147-45-45-45z" fill="#85453d"/><path d="m271.001 97.5c0-24.853-6.716-45-15-45-24.853 0-45 20.147-45 45s20.147 45 45 45c8.284 0 15-20.147 15-45z" fill="#a45e43"/><path d="m256.001 412.5h30l15-15v-90h-75z" fill="#ff4996"/><path d="m256.001 412.5h-30l-15-15v-90h45z" fill="#ff6b8a"/><path d="m241.001 247.5 15 90c24.853 0 45-20.147 45-45z" fill="#49c9ff"/><path d="m211.001 292.5c0 24.853 20.147 45 45 45v-90z" fill="#7dd9ff"/><path d="m286.001 172.5h-30l-30 60 30 60h45v-105z" fill="#dbf4ff"/><path d="m226.001 172.5-15 15v105h45v-120z" fill="#fff"/><path d="m216.007 172.5c-11.046 0-20 8.954-20 20l-.006 220h30v-240z" fill="#ff8d7e"/><path d="m315.995 192.5c0-11.046-8.954-20-20-20h-10v240h30z" fill="#ff6b8a"/><path d="m353.501 132.5h45v-30l-22.5-20-22.5 20z" fill="#7dd9ff"/><path d="m391.001 65.734v-28.234h-30v28.234c-4.602 4.12-7.5 10.104-7.5 16.766v20h45v-20c0-6.663-2.898-12.646-7.5-16.766z" fill="#dbf4ff"/><path d="m256.001 150c28.949 0 52.5-23.552 52.5-52.5v-67.5c0-12.406-10.093-22.5-22.5-22.5-1.03 0-2.05.069-3.058.209-4.207-4.815-10.353-7.709-16.942-7.709-3.499 0-6.915.816-10 2.354-3.085-1.538-6.501-2.354-10-2.354-6.588 0-12.735 2.895-16.942 7.709-1.008-.14-2.028-.209-3.058-.209-12.407 0-22.5 10.094-22.5 22.5v67.5c0 28.948 23.551 52.5 52.5 52.5zm-37.5-120c0-4.136 3.364-7.5 7.5-7.5 1.079 0 2.137.237 3.145.705 1.822.846 3.907.926 5.789.221 1.881-.704 3.401-2.134 4.219-3.969 1.208-2.707 3.895-4.457 6.847-4.457 1.835 0 3.608.684 4.993 1.926 2.849 2.555 7.165 2.555 10.014 0 1.385-1.242 3.158-1.926 4.993-1.926 2.952 0 5.639 1.75 6.847 4.457.818 1.835 2.338 3.265 4.219 3.969 1.882.705 3.966.625 5.789-.221 1.008-.468 2.066-.705 3.146-.705 4.136 0 7.5 3.364 7.5 7.5v30.808c-9.538-9.745-22.822-15.808-37.501-15.808s-27.963 6.063-37.5 15.808zm37.5 30c20.678 0 37.5 16.822 37.5 37.5s-16.822 37.5-37.5 37.5-37.5-16.822-37.5-37.5 16.822-37.5 37.5-37.5z"/><path d="m353.501 140h45c4.142 0 7.5-3.357 7.5-7.5v-50c0-7.33-2.699-14.387-7.5-19.837v-25.163c0-4.143-3.358-7.5-7.5-7.5h-30c-4.142 0-7.5 3.357-7.5 7.5v25.163c-4.801 5.45-7.5 12.507-7.5 19.837v50c0 4.143 3.358 7.5 7.5 7.5zm7.5-57.5c0-4.258 1.824-8.332 5.003-11.179 1.589-1.423 2.497-3.455 2.497-5.588v-20.733h15v20.733c0 2.133.908 4.165 2.498 5.588 3.179 2.847 5.002 6.921 5.002 11.179v42.5h-30z"/><path d="m391.001 155h-15c-4.142 0-7.5 3.357-7.5 7.5s3.358 7.5 7.5 7.5h15c4.136 0 7.5 3.364 7.5 7.5s-3.364 7.5-7.5 7.5h-68.548c-3.274-11.528-13.889-20-26.452-20h-80c-12.465 0-23.013 8.339-26.375 19.729-42.52-3.268-76.125-38.886-76.125-82.229 0-4.143-3.358-7.5-7.5-7.5s-7.5 3.357-7.5 7.5c0 51.239 39.729 93.372 90 97.214v212.786c0 4.143 3.358 7.5 7.5 7.5h22.5v69.095l-24.872 8.29c-3.93 1.31-6.053 5.558-4.744 9.487 1.048 3.143 3.974 5.13 7.114 5.13.786 0 1.586-.125 2.373-.387l30-10c3.063-1.021 5.128-3.887 5.128-7.115v-74.5h45v74.5c0 3.229 2.066 6.095 5.128 7.115l30 10c.787.262 1.586.387 2.373.387 3.14 0 6.066-1.987 7.114-5.13 1.31-3.93-.814-8.178-4.744-9.487l-24.872-8.29v-69.095h22.5c4.142 0 7.5-3.357 7.5-7.5v-212.5h67.5c12.407 0 22.5-10.094 22.5-22.5s-10.091-22.5-22.498-22.5zm-157.5 145h45v22.489c-6.47 4.862-14.344 7.511-22.5 7.511s-16.03-2.65-22.5-7.511zm45-15h-45v-105h45zm-75 120v-212.5c0-6.893 5.607-12.5 12.5-12.5h2.5v225zm30 0v-65.076c6.973 3.312 14.642 5.076 22.5 5.076s15.527-1.764 22.5-5.076v65.076zm75 0h-15v-225h2.5c6.893 0 12.5 5.607 12.5 12.5z"/><circle cx="256.001" cy="202.531" r="7.5"/><circle cx="256.001" cy="232.531" r="7.5"/></g></svg>