<svg id="Capa_1" enable-background="new 0 0 512.002 512.002" height="512" viewBox="0 0 512.002 512.002" width="512" xmlns="http://www.w3.org/2000/svg"><g><path d="m421.001 172.5h-30v100h45v-85c0-8.284-6.716-15-15-15z" fill="#353535"/><path d="m316.001 187.5v85h90v-85c0-8.284-6.716-15-15-15h-60c-8.284 0-15 6.716-15 15z" fill="#4f4f4f"/><path d="m421.001 262.5-30 30h30c16.569 0 30-13.432 30-30z" fill="#ccc"/><path d="m421.001 262.5h-120c0 16.568 13.431 30 30 30h60c16.568 0 30-13.432 30-30z" fill="#ebebeb"/><circle cx="211.001" cy="30.002" fill="#ff6753" r="22.5"/><path d="m186.366 59.836-40.166 26.336c-6.138 4.018-10.199 10.945-10.199 18.828 0 4.64 1.406 8.951 3.813 12.533-2.364 2.651-3.813 6.136-3.813 9.967 0 8.284 6.716 15 15 15h60v-82.664z" fill="#ff6753"/><path d="m286.001 105c0-7.884-4.061-14.811-10.199-18.828l-40.166-26.336h-24.635v82.664h60c8.284 0 15-6.716 15-15 0-3.831-1.449-7.316-3.813-9.967 2.407-3.582 3.813-7.893 3.813-12.533z" fill="#ff4128"/><path d="m239.284 62.386h-28.283v79.992c24.853 0 45-20.147 45-45 0-14.135-6.523-26.742-16.717-34.992z" fill="#ffb4a9"/><path d="m224.702 79.064-41.984-16.678c-10.194 8.25-16.717 20.856-16.717 34.992 0 24.853 20.147 45 45 45 8.284 0 15-20.147 15-45 0-6.524-.467-12.718-1.299-18.314z" fill="#ffd9d4"/><path d="m211.001 52.378v26.686h13.701c6.754-3.473 12.02-9.436 14.583-16.678-7.73-6.255-17.566-10.008-28.284-10.008z" fill="#ff4128"/><path d="m211.001 52.378c-10.718 0-20.554 3.753-28.283 10.008 4.121 11.646 15.225 19.992 28.283 19.992 4.938 0 9.593-1.2 13.701-3.314-2.339-15.722-7.592-26.686-13.701-26.686z" fill="#ff6753"/><path d="m201.001 269.5 40 112.403c6.635 9.429 17.594 15.597 30 15.597v-78l-30-50z" fill="#7dd9ff"/><path d="m181.001 172.5-29.995 147-.005 78c12.406 0 23.365-6.167 30-15.597 6.635 9.43 17.594 15.597 30 15.597s23.365-6.167 30-15.597v-209.403z" fill="#a8e5ff"/><path d="m250.994 172.5h-9.994v117c0 16.569 13.431 30 30 30v-127c.001-11.045-8.96-20-20.006-20z" fill="#808080"/><path d="m171.001 172.5c-11.046 0-20 8.954-20 20v127c16.568-.001 29.994-13.432 29.994-30l.006-117z" fill="#999"/><path d="m451.001 255h-7.5v-67.5c0-12.406-10.093-22.5-22.5-22.5h-90c-12.407 0-22.5 10.094-22.5 22.5v67.5h-7.5c-4.142 0-7.5 3.357-7.5 7.5 0 20.678 16.822 37.5 37.5 37.5h90c20.678 0 37.5-16.822 37.5-37.5 0-4.143-3.358-7.5-7.5-7.5zm-127.5-67.5c0-4.136 3.364-7.5 7.5-7.5h90c4.136 0 7.5 3.364 7.5 7.5v67.5h-105zm97.5 97.5h-90c-9.778 0-18.12-6.27-21.215-15h132.43c-3.095 8.73-11.437 15-21.215 15z"/><path d="m290.951 117.118c1.678-3.793 2.55-7.905 2.55-12.118 0-10.148-5.081-19.533-13.587-25.101l-37.94-24.875c-2.674-1.961-5.538-3.677-8.562-5.11 4.716-5.302 7.589-12.277 7.589-19.914 0-16.542-13.458-30-30-30s-30 13.458-30 30c0 7.637 2.873 14.612 7.589 19.914-3.024 1.434-5.888 3.149-8.563 5.11l-37.934 24.872c-8.511 5.571-13.592 14.955-13.592 25.104 0 4.212.872 8.324 2.55 12.118-1.664 3.185-2.55 6.74-2.55 10.382 0 12.406 10.093 22.5 22.5 22.5h120c12.407 0 22.5-10.094 22.5-22.5 0-3.642-.886-7.196-2.55-10.382zm-79.95 17.76c-20.678 0-37.5-16.822-37.5-37.5 0-8.433 2.799-16.223 7.515-22.493 6.962 9.254 18.001 14.993 29.985 14.993s23.023-5.739 29.985-14.993c4.716 6.271 7.515 14.061 7.515 22.493 0 20.678-16.822 37.5-37.5 37.5zm0-74.878c.658 0 1.31-.029 1.957-.071 6.069.314 11.756 2.085 16.731 4.958-4.112 6.13-11.08 9.99-18.689 9.99s-14.576-3.86-18.688-9.99c4.975-2.873 10.662-4.645 16.731-4.958.648.042 1.3.071 1.958.071zm-15-30c0-8.271 6.729-15 15-15s15 6.729 15 15c0 7.744-5.898 14.133-13.437 14.918-.521-.015-1.039-.04-1.563-.04s-1.043.024-1.563.04c-7.539-.785-13.437-7.174-13.437-14.918zm-52.5 97.5c0-2.341 1.039-3.998 1.911-4.976 2.279-2.557 2.537-6.331.627-9.174-1.66-2.471-2.538-5.358-2.538-8.351 0-5.07 2.544-9.763 6.812-12.556l9.376-6.148c-.771 3.574-1.187 7.28-1.187 11.081 0 14.743 6.117 28.077 15.936 37.622h-23.436c-4.137.002-7.501-3.362-7.501-7.498zm133.089-4.976c.872.978 1.911 2.635 1.911 4.976 0 4.136-3.364 7.5-7.5 7.5h-23.436c9.819-9.545 15.936-22.879 15.936-37.622 0-3.802-.416-7.507-1.188-11.082l9.381 6.151c4.262 2.789 6.807 7.482 6.807 12.553 0 2.992-.877 5.88-2.538 8.35-1.91 2.842-1.652 6.618.627 9.174z"/><path d="m251.001 165h-80c-12.563 0-23.178 8.472-26.452 20h-68.548c-4.136 0-7.5-3.364-7.5-7.5s3.364-7.5 7.5-7.5h15c4.142 0 7.5-3.357 7.5-7.5v-65c0-4.143-3.358-7.5-7.5-7.5s-7.5 3.357-7.5 7.5v57.5h-7.5c-12.407 0-22.5 10.094-22.5 22.5s10.093 22.5 22.5 22.5h67.5v197.5c0 4.143 3.358 7.5 7.5 7.5 8.22 0 16.158-2.312 23-6.489v90.584l-24.872 8.29c-3.93 1.31-6.053 5.558-4.744 9.487 1.048 3.143 3.974 5.13 7.114 5.13.786 0 1.586-.125 2.373-.387l30-10c3.063-1.021 5.128-3.887 5.128-7.115v-95.393c6.61 3.802 14.178 5.893 22 5.893s15.39-2.091 22-5.893v95.393c0 3.229 2.066 6.095 5.128 7.115l30 10c.787.262 1.586.387 2.373.387 3.14 0 6.066-1.987 7.114-5.13 1.31-3.93-.814-8.178-4.744-9.487l-24.872-8.29v-90.584c6.842 4.178 14.78 6.489 23 6.489 4.142 0 7.5-3.357 7.5-7.5v-205c.002-15.163-12.334-27.5-27.498-27.5zm12.5 27.5v118.21c-8.729-3.096-15-11.433-15-21.21v-109.5h2.5c6.893 0 12.5 5.607 12.5 12.5zm-92.5-12.5h2.5v109.5c0 9.777-6.271 18.114-15 21.21v-118.21c0-6.893 5.607-12.5 12.5-12.5zm76.134 197.587c-1.405-1.997-3.693-3.185-6.134-3.185s-4.729 1.188-6.134 3.185c-5.469 7.772-14.391 12.413-23.866 12.413s-18.397-4.641-23.866-12.413c-1.405-1.997-3.693-3.185-6.134-3.185s-4.729 1.188-6.134 3.185c-3.992 5.674-9.822 9.678-16.366 11.427v-62.768c17.096-3.484 30-18.635 30-36.745v-109.501h45v109.5c0 18.11 12.904 33.261 30 36.745v62.768c-6.543-1.748-12.375-5.753-16.366-11.426z"/></g></svg>