<svg id="Capa_1" enable-background="new 0 0 512.002 512.002" height="512" viewBox="0 0 512.002 512.002" width="512" xmlns="http://www.w3.org/2000/svg"><g><path d="m459.502 202.501h-90c0 24.853 20.147 45 45 45s45-20.147 45-45z" fill="#85453d"/><path d="m414.502 217.501c24.853 0 45-6.716 45-15 0-24.853-20.147-45-45-45s-45 20.147-45 45c0 8.284 20.147 15 45 15z" fill="#a45e43"/><path d="m489.502 232.501c0-.858-.088-1.693-.227-2.511.076.001.15.011.227.011 8.284 0 15-6.716 15-15 0-5.22-2.67-9.813-6.715-12.5 4.045-2.687 6.715-7.28 6.715-12.5 0-8.284-6.716-15-15-15-.077 0-.15.01-.227.011.138-.818.227-1.654.227-2.511 0-8.284-6.716-15-15-15s-15 6.716-15 15v60c0 8.284 6.716 15 15 15s15-6.716 15-15z" fill="#60312c"/><path d="m249.502 187.501-75 30v30h45z" fill="#ffa754"/><path d="m219.502 157.501c-24.853 0-45 20.147-45 45v15h75z" fill="#ffcb63"/><path d="m219.502 217.501v30h55l50-75z" fill="#85453d"/><path d="m219.502 217.501v-60h55l50 60z" fill="#a45e43"/><path d="m339.502 227.501v-30l-65 20v30h45c11.046 0 20-8.954 20-20z" fill="#ffa754"/><path d="m319.502 217.501c11.046 0 20-8.954 20-20v-20c0-11.046-8.954-20-20-20h-45v60z" fill="#ffcb63"/><path d="m512.002 190.001c0-9.899-6.426-18.326-15.326-21.327-1.822-10.59-11.072-18.673-22.174-18.673-10.375 0-19.128 7.061-21.718 16.628-9.585-10.223-23.196-16.628-38.282-16.628-28.948 0-52.5 23.552-52.5 52.5s23.552 52.5 52.5 52.5c15.086 0 28.697-6.405 38.282-16.628 2.59 9.567 11.343 16.628 21.718 16.628 11.102 0 20.352-8.083 22.174-18.673 8.9-3.001 15.326-11.428 15.326-21.327 0-4.525-1.351-8.855-3.789-12.5 2.438-3.645 3.789-7.975 3.789-12.5zm-97.5 50c-20.678 0-37.5-16.822-37.5-37.5s16.822-37.5 37.5-37.5 37.5 16.822 37.5 37.5-16.822 37.5-37.5 37.5zm79.136-31.252c2.106 1.398 3.364 3.736 3.364 6.252 0 4.079-3.273 7.408-7.332 7.498-.13-.007-.26-.011-.395-.01-2.189 0-4.272.957-5.698 2.623-1.446 1.69-2.068 3.937-1.696 6.13.081.481.121.893.121 1.259 0 4.136-3.364 7.5-7.5 7.5s-7.5-3.364-7.5-7.5v-60c0-4.136 3.364-7.5 7.5-7.5s7.5 3.364 7.5 7.5c0 .366-.04.777-.121 1.259-.375 2.21.259 4.473 1.728 6.166 1.468 1.693 3.579 2.661 5.859 2.584.066-.001.132-.004.198-.007 4.061.088 7.336 3.418 7.336 7.498 0 2.516-1.258 4.854-3.364 6.252-2.093 1.391-3.351 3.735-3.351 6.248s1.258 4.857 3.351 6.248z"/><path d="m5.13 239.616c.787.262 1.586.387 2.373.387 3.14 0 6.066-1.987 7.114-5.13l8.291-24.872h144.094v194.5c0 3.229 2.066 6.095 5.128 7.115l30 10c.787.262 1.586.387 2.373.387 3.14 0 6.066-1.987 7.114-5.13 1.31-3.93-.814-8.178-4.744-9.487l-24.872-8.29v-144.095h130v159.5c0 4.143 3.357 7.5 7.5 7.5s7.5-3.357 7.5-7.5v-160.548c11.528-3.274 20-13.889 20-26.452v-50c0-12.465-8.339-23.013-19.729-26.375 3.268-42.52 38.886-76.125 82.229-76.125 4.143 0 7.5-3.357 7.5-7.5s-3.357-7.5-7.5-7.5c-51.239 0-93.372 39.729-97.214 90h-92.786c-26.402 0-48.304 19.593-51.956 45h-150.043c-3.228 0-6.094 2.065-7.115 5.128l-10 30c-1.31 3.93.814 8.178 4.743 9.487zm221.872-74.615h40v75h-40zm105 12.5v50c0 6.893-5.607 12.5-12.5 12.5h-37.5v-75h37.5c6.893 0 12.5 5.607 12.5 12.5zm-120-11.745v74.245h-30v-37.5c0-18.11 12.904-33.261 30-36.745z"/><path d="m504.502 437.001h-497c-4.142 0-7.5 3.357-7.5 7.5s3.358 7.5 7.5 7.5h497c4.143 0 7.5-3.357 7.5-7.5s-3.357-7.5-7.5-7.5z" fill="#49c9ff"/></g></svg>