<svg id="Capa_1" enable-background="new 0 0 512.002 512.002" height="512" viewBox="0 0 512.002 512.002" width="512" xmlns="http://www.w3.org/2000/svg"><g><path d="m284.284 62.508h-28.283v79.992c24.853 0 45-20.147 45-45 0-14.135-6.523-26.742-16.717-34.992z" fill="#ffb4a9"/><path d="m269.702 79.186-41.984-16.678c-10.194 8.25-16.717 20.856-16.717 34.992 0 24.853 20.147 45 45 45 8.284 0 15-20.147 15-45 0-6.524-.467-12.718-1.299-18.314z" fill="#ffd9d4"/><path d="m256.001 52.5v26.686h13.701c6.754-3.473 12.02-9.436 14.583-16.678-7.73-6.255-17.566-10.008-28.284-10.008z" fill="#ff8646"/><path d="m256.001 52.5c-10.718 0-20.554 3.753-28.283 10.008 4.121 11.646 15.225 19.992 28.283 19.992 4.938 0 9.593-1.2 13.701-3.314-2.339-15.722-7.592-26.686-13.701-26.686z" fill="#ffa754"/><path d="m241.001 52.5h30c8.284 0 15-6.716 15-15 0-16.569-13.431-30-30-30s-30 13.431-30 30c0 8.284 6.716 15 15 15z" fill="#ffa754"/><path d="m301.001 262.5-60-60 30 132.429v87.571c0 8.284 6.716 15 15 15 7.636 0 13.925-5.71 14.865-13.09l14.629-114.567c.322-2.516.506-5.074.506-7.678 0-15.211-5.671-29.09-15-39.665z" fill="#ff8d7e"/><path d="m271.001 202.5-60 60c-9.329 10.575-15 24.454-15 39.665 0 2.603.184 5.162.506 7.678l14.629 114.568c.941 7.38 7.23 13.089 14.865 13.089 8.284 0 15-6.716 15-15v-87.571c4.693 1.659 9.739 2.571 15 2.571s10.307-.912 15-2.571z" fill="#ffb4a9"/><path d="m281.001 172.256h-30l20 90h30v-70c0-11.046-8.954-20-20-20z" fill="#ffd9d4"/><path d="m251.001 172.256h-20c-11.046 0-20 8.954-20 20v70h60v-70c0-11.046-8.954-20-20-20z" fill="#fff0d3"/><g fill="#ffcb63"><circle cx="181.001" cy="97.5" r="7.5"/><circle cx="186.71" cy="126.201" r="7.5"/><circle cx="325.292" cy="126.201" r="7.5"/><circle cx="331.001" cy="97.5" r="7.5"/><circle cx="325.292" cy="68.799" r="7.5"/><circle cx="186.71" cy="68.799" r="7.5"/></g><path d="m203.501 97.5c0 28.948 23.552 52.5 52.5 52.5s52.5-23.552 52.5-52.5c0-17.855-8.967-33.648-22.627-43.137 4.672-4.126 7.627-10.154 7.627-16.863 0-20.678-16.822-37.5-37.5-37.5s-37.5 16.822-37.5 37.5c0 6.708 2.955 12.737 7.627 16.863-13.66 9.489-22.627 25.282-22.627 43.137zm90 0c0 20.678-16.822 37.5-37.5 37.5s-37.5-16.822-37.5-37.5c0-8.433 2.799-16.223 7.515-22.493 6.962 9.254 18.001 14.993 29.985 14.993s23.023-5.739 29.985-14.993c4.716 6.27 7.515 14.06 7.515 22.493zm-56.188-32.491c5.506-3.179 11.885-5.009 18.688-5.009s13.182 1.83 18.688 5.009c-4.112 6.131-11.079 9.991-18.688 9.991s-14.576-3.86-18.688-9.991zm3.688-20.009c-4.136 0-7.5-3.364-7.5-7.5 0-12.406 10.094-22.5 22.5-22.5s22.5 10.094 22.5 22.5c0 4.136-3.364 7.5-7.5 7.5z"/><path d="m346.001 185.062h-38.531c-3.253-11.56-13.884-20.062-26.469-20.062h-50c-12.585 0-23.216 8.502-26.469 20.062h-38.531c-12.406 0-22.5 10.094-22.5 22.5s10.094 22.5 22.5 22.5h37.5v29.697c-9.693 11.988-15 26.935-15 42.406 0 2.783.19 5.686.566 8.628l14.629 114.567c1.096 8.597 7.011 15.553 14.805 18.328v45.406l-24.872 8.29c-3.93 1.31-6.053 5.558-4.743 9.487 1.048 3.143 3.974 5.13 7.114 5.13.786 0 1.586-.125 2.373-.387l30-10c3.063-1.021 5.128-3.887 5.128-7.115v-50.79c8.729-3.096 15-11.433 15-21.21v-78.036c4.951.713 10.051.713 15 0v78.037c0 9.777 6.271 18.114 15 21.21v50.79c0 3.229 2.065 6.095 5.128 7.115l30 10c.787.262 1.587.387 2.373.387 3.14 0 6.066-1.987 7.114-5.13 1.31-3.93-.813-8.178-4.743-9.487l-24.872-8.29v-45.406c7.796-2.775 13.711-9.733 14.805-18.329l14.629-114.566c.376-2.942.566-5.845.566-8.628 0-15.472-5.307-30.418-15-42.406v-29.697h37.5c12.406 0 22.5-10.094 22.5-22.5s-10.094-22.501-22.5-22.501zm-115-5.062h50c6.893 0 12.5 5.607 12.5 12.5v22.562h-17.5c-6.893 0-12.5-5.607-12.5-12.5 0-4.143-3.357-7.5-7.5-7.5s-7.5 3.357-7.5 7.5c0 6.893-5.607 12.5-12.5 12.5h-17.5v-22.562c0-6.893 5.607-12.5 12.5-12.5zm-65 35.062c-4.136 0-7.5-3.364-7.5-7.5s3.364-7.5 7.5-7.5h37.5v15zm142.055 93.831-14.63 114.569c-.474 3.728-3.666 6.538-7.425 6.538-4.136 0-7.5-3.364-7.5-7.5v-87.571c0-2.435-1.182-4.718-3.17-6.124-1.283-.907-2.8-1.376-4.331-1.376-.84 0-1.686.142-2.499.429-8.04 2.844-16.956 2.845-25 0-2.296-.81-4.843-.457-6.83.947-1.988 1.406-3.17 3.689-3.17 6.124v87.571c0 4.136-3.364 7.5-7.5 7.5-3.758 0-6.95-2.811-7.426-6.539l-14.629-114.568c-.3-2.347-.445-4.548-.445-6.728 0-11.687 3.905-22.982 11.039-32.165h82.923c7.133 9.183 11.039 20.478 11.039 32.165-.001 2.18-.147 4.381-.446 6.728zm-14.555-54.137h-75v-24.694h17.5c7.872 0 14.982-3.324 20-8.644 5.018 5.319 12.128 8.644 20 8.644h17.5zm52.5-39.694h-37.5v-15h37.5c4.136 0 7.5 3.364 7.5 7.5s-3.364 7.5-7.5 7.5z"/></g></svg>