<svg id="Capa_1" enable-background="new 0 0 512.002 512.002" height="512" viewBox="0 0 512.002 512.002" width="512" xmlns="http://www.w3.org/2000/svg"><g><path d="m431.001 172.5h-30l-20 112.857 50-22.857z" fill="#a8e5ff"/><path d="m391.001 172.5c-16.569 0-30 13.431-30 30l-10 42.5 10 47.5 40-17.143v-102.857z" fill="#dbf4ff"/><path d="m331.001 172.5h-40v90l70 30v-90c0-16.569-13.431-30-30-30z" fill="#fff"/><path d="m331.001 262.5h-40v30h70c0-16.569-13.431-30-30-30z" fill="#30b054"/><path d="m401.001 262.5-10 15 10 15h30v-30z" fill="#048168"/><path d="m391.001 262.5c-16.569 0-30 13.431-30 30h40v-30z" fill="#029965"/><path d="m216.001 262.5v75c24.853 0 45-20.147 45-45z" fill="#ff6b8a"/><path d="m231.001 292.5-15-30-45 30c0 24.853 20.147 45 45 45 8.284 0 15-20.147 15-45z" fill="#ff8d7e"/><path d="m241.001 172.5h-30l20 120h30v-100c0-11.045-8.954-20-20-20z" fill="#ff4996"/><path d="m211.001 172.5h-20c-11.046 0-20 8.954-20 20v100h60v-100c0-11.045-8.954-20-20-20z" fill="#ff6b8a"/><path d="m252.373 37.434c1.494-5.8-.01-12.213-4.552-16.754s-10.955-6.047-16.754-4.552c-3.044-5.158-8.643-8.628-15.066-8.628s-12.021 3.47-15.066 8.628c-5.8-1.495-12.213.01-16.754 4.552s-6.046 10.954-4.552 16.754c-5.158 3.044-8.628 8.643-8.628 15.066v45h90s0-35.335 0-45c0-6.423-3.471-12.022-8.628-15.066z" fill="#ff8646"/><path d="m216.001 52.5v90c24.853 0 45-20.147 45-45s-20.147-45-45-45z" fill="#ffd9d4"/><path d="m231.001 97.5c0-24.853-6.716-45-15-45-24.853 0-45 20.147-45 45s20.147 45 45 45c8.284 0 15-20.148 15-45z" fill="#fff0d3"/><path d="m431.001 165h-40c-12.253 0-23.152 5.907-30 15.023-6.848-9.116-17.747-15.023-30-15.023h-40c-4.143 0-7.5 3.357-7.5 7.5v120c0 4.143 3.357 7.5 7.5 7.5h140c4.143 0 7.5-3.357 7.5-7.5v-120c0-4.143-3.357-7.5-7.5-7.5zm-40 15h32.5v75h-32.5c-8.435 0-16.228 2.8-22.5 7.519v-60.019c0-12.406 10.094-22.5 22.5-22.5zm-60 0c12.406 0 22.5 10.094 22.5 22.5v60.019c-6.272-4.719-14.065-7.519-22.5-7.519h-32.5v-75zm-32.5 90h32.5c9.777 0 18.114 6.271 21.21 15h-53.71zm71.29 15c3.096-8.729 11.433-15 21.21-15h32.5v15z"/><path d="m216.001 150c28.948 0 52.5-23.552 52.5-52.5v-45c0-7.025-3.013-13.703-8.1-18.392.282-6.911-2.31-13.764-7.277-18.732-4.969-4.969-11.809-7.561-18.732-7.277-4.687-5.086-11.365-8.099-18.391-8.099s-13.704 3.013-18.391 8.099c-6.919-.284-13.764 2.31-18.732 7.277-4.968 4.969-7.56 11.821-7.277 18.732-5.087 4.688-8.1 11.366-8.1 18.392v45c0 28.948 23.552 52.5 52.5 52.5zm-37.5-97.5c0-3.563 1.847-6.781 4.941-8.608 2.876-1.698 4.283-5.094 3.449-8.329-.896-3.479.073-7.06 2.594-9.579 2.521-2.521 6.102-3.487 9.578-2.593 3.233.829 6.633-.573 8.331-3.451 1.825-3.093 5.043-4.939 8.606-4.939s6.781 1.847 8.606 4.939c1.698 2.879 5.096 4.283 8.331 3.451 3.479-.895 7.059.072 9.578 2.593 2.521 2.52 3.489 6.101 2.594 9.579-.834 3.235.573 6.631 3.449 8.329 3.095 1.827 4.941 5.045 4.941 8.608v8.308c-9.535-9.745-22.819-15.808-37.498-15.808s-27.963 6.063-37.5 15.808zm37.5 7.5c20.678 0 37.5 16.822 37.5 37.5s-16.822 37.5-37.5 37.5-37.5-16.822-37.5-37.5 16.822-37.5 37.5-37.5z"/><path d="m278.373 497.385-24.872-8.29v-159.903c9.27-9.472 15-22.423 15-36.692v-100c0-15.163-12.337-27.5-27.5-27.5h-50c-12.465 0-23.013 8.339-26.375 19.729-42.52-3.268-76.125-38.886-76.125-82.229 0-4.143-3.357-7.5-7.5-7.5s-7.5 3.357-7.5 7.5c0 51.239 39.729 93.372 90 97.214v92.786c0 14.269 5.73 27.219 15 36.692v159.903l-24.872 8.29c-3.93 1.31-6.053 5.558-4.743 9.487 1.048 3.143 3.974 5.13 7.114 5.13.786 0 1.586-.125 2.373-.387l30-10c3.063-1.021 5.128-3.887 5.128-7.115v-154.576c6.824 3.251 14.452 5.076 22.5 5.076s15.676-1.825 22.5-5.076v154.576c0 3.229 2.065 6.095 5.128 7.115l30 10c.787.262 1.587.387 2.373.387 3.141 0 6.066-1.987 7.114-5.13 1.31-3.93-.813-8.178-4.743-9.487zm-87.372-317.385h50c6.893 0 12.5 5.607 12.5 12.5v92.5h-75v-92.5c0-6.893 5.607-12.5 12.5-12.5zm-11.745 120h73.491c-3.484 17.096-18.635 30-36.745 30s-33.262-12.904-36.746-30z"/></g></svg>