<svg id="Capa_1" enable-background="new 0 0 512.002 512.002" height="512" viewBox="0 0 512.002 512.002" width="512" xmlns="http://www.w3.org/2000/svg"><g><path d="m121.001 52.5c8.284 0 15 6.716 15 15v15c0 8.284-6.716 15-15 15s-15-6.716-15-15v-15c0-8.285 6.716-15 15-15z" fill="#e18f4e"/><path d="m241.001 52.5v90c24.853 0 45-20.147 45-45s-20.147-45-45-45z" fill="#a45e43"/><path d="m256.001 97.5c0-24.853-6.716-45-15-45-24.853 0-45 20.147-45 45s20.147 45 45 45c8.284 0 15-20.148 15-45z" fill="#c27749"/><path d="m278.501 27.5c0-11.046-8.954-20-20-20-7.535 0-14.09 4.17-17.5 10.325l-10 27.337 10 27.337h37.5z" fill="#fff0d3"/><path d="m223.501 7.5c-11.046 0-20 8.954-20 20v45h37.5v-54.675c-3.41-6.155-9.965-10.325-17.5-10.325z" fill="#fff"/><path d="m241.001 262.5 15 112h30v-82z" fill="#fff0d3"/><path d="m241.001 262.5-45 30v82h60v-82z" fill="#fff"/><path d="m281.001 172.5h-30l-20 75 25 45h30v-45c8.964-4.993 15-14.315 15-25v-30c0-11.046-8.955-20-20-20z" fill="#7dd9ff"/><path d="m251.001 172.5h-50c-11.046 0-20 8.954-20 20v30c0 10.685 6.036 20.007 15 25v45h60v-45c8.964-4.993 15-14.315 15-25v-30c0-11.046-8.955-20-20-20z" fill="#a8e5ff"/><path d="m391.001 87.5-15 45c24.853 0 45-20.147 45-45z" fill="#ffe2a8"/><path d="m391.001 87.5h-60c0 24.853 20.147 45 45 45 8.284 0 15-20.147 15-45z" fill="#fff0d3"/><path d="m286.001 292.5c0 24.853 20.147 45 45 45 0-24.853-20.147-45-45-45z" fill="#ffe2a8"/><path d="m196.001 292.5c0 24.853-20.147 45-45 45 0-24.853 20.147-45 45-45z" fill="#fff0d3"/><path d="m241.001 150c28.949 0 52.5-23.552 52.5-52.5 0-9.708-2.59-19.049-7.5-27.169v-42.831c0-15.163-12.336-27.5-27.5-27.5-6.487 0-12.648 2.292-17.5 6.296-4.852-4.004-11.013-6.296-17.5-6.296-15.164 0-27.5 12.337-27.5 27.5v42.831c-4.91 8.119-7.5 17.46-7.5 27.169 0 28.948 23.551 52.5 52.5 52.5zm0-15c-20.678 0-37.5-16.822-37.5-37.5 0-6.204 1.461-12.183 4.252-17.5h66.495c2.792 5.318 4.253 11.296 4.253 17.5 0 20.678-16.822 37.5-37.5 37.5zm-17.5-120c4.54 0 8.732 2.476 10.94 6.46 1.321 2.386 3.833 3.865 6.56 3.865s5.239-1.479 6.56-3.865c2.208-3.984 6.4-6.46 10.94-6.46 6.893 0 12.5 5.607 12.5 12.5v37.5h-60v-37.5c0-6.893 5.607-12.5 12.5-12.5z"/><circle cx="241.001" cy="202.5" r="7.5"/><circle cx="241.001" cy="232.5" r="7.5"/><path d="m376.001 155h-15c-4.142 0-7.5 3.357-7.5 7.5s3.358 7.5 7.5 7.5h15c4.136 0 7.5 3.364 7.5 7.5s-3.364 7.5-7.5 7.5h-68.548c-3.274-11.528-13.889-20-26.452-20h-80c-12.563 0-23.178 8.472-26.452 20h-68.548c-4.136 0-7.5-3.364-7.5-7.5s3.364-7.5 7.5-7.5h15c4.142 0 7.5-3.357 7.5-7.5v-58.79c8.729-3.096 15-11.433 15-21.21v-15c0-12.406-10.093-22.5-22.5-22.5s-22.5 10.094-22.5 22.5v15c0 9.777 6.271 18.114 15 21.21v51.29h-7.5c-12.407 0-22.5 10.094-22.5 22.5s10.093 22.5 22.5 22.5h67.5v22.5c0 11.485 5.65 22.271 15 29.09v33.954c-25.407 3.651-45 25.554-45 51.956 0 4.143 3.358 7.5 7.5 7.5 14.679 0 27.963-6.063 37.5-15.808v45.308c0 4.143 3.358 7.5 7.5 7.5h7.5v107.095l-24.872 8.29c-3.93 1.31-6.053 5.558-4.744 9.487 1.048 3.143 3.974 5.13 7.114 5.13.786 0 1.586-.125 2.373-.387l30-10c3.063-1.021 5.128-3.887 5.128-7.115v-112.5h45v112.5c0 3.229 2.066 6.095 5.128 7.115l30 10c.787.262 1.586.387 2.373.387 3.14 0 6.066-1.987 7.114-5.13 1.31-3.93-.814-8.178-4.744-9.487l-24.872-8.29v-107.095h7.5c4.142 0 7.5-3.357 7.5-7.5v-45.308c9.537 9.745 22.821 15.808 37.5 15.808 4.142 0 7.5-3.357 7.5-7.5 0-26.401-19.593-48.304-45-51.956v-33.954c9.35-6.819 15-17.604 15-29.09v-22.5h67.5c12.407 0 22.5-10.094 22.5-22.5s-10.091-22.5-22.498-22.5zm-262.5-87.5c0-4.136 3.364-7.5 7.5-7.5s7.5 3.364 7.5 7.5v15c0 4.136-3.364 7.5-7.5 7.5s-7.5-3.364-7.5-7.5zm45.963 261.537c3.217-13.896 14.179-24.857 28.074-28.074-3.217 13.895-14.179 24.857-28.074 28.074zm163.074 0c-13.896-3.217-24.857-14.179-28.074-28.074 13.895 3.217 24.857 14.179 28.074 28.074zm-119.037 37.963v-67h75v67zm90-144.5c0 7.549-4.272 14.618-11.149 18.447-2.377 1.324-3.851 3.832-3.851 6.553v37.5h-75v-37.5c0-2.721-1.474-5.229-3.851-6.553-6.877-3.829-11.149-10.898-11.149-18.447v-30c0-6.893 5.607-12.5 12.5-12.5h80c6.893 0 12.5 5.607 12.5 12.5z"/><path d="m421.001 80h-90c-4.142 0-7.5 3.357-7.5 7.5 0 28.948 23.551 52.5 52.5 52.5s52.5-23.552 52.5-52.5c0-4.143-3.358-7.5-7.5-7.5zm-45 45c-18.109 0-33.262-12.904-36.747-30h73.493c-3.484 17.096-18.637 30-36.746 30z"/><path d="m391.001 65c4.142 0 7.5-3.357 7.5-7.5 0-9.869 3.688-14.479 8.356-20.314 5.188-6.484 11.644-14.555 11.644-29.686 0-4.143-3.358-7.5-7.5-7.5s-7.5 3.357-7.5 7.5c0 9.869-3.688 14.479-8.356 20.314-5.188 6.484-11.644 14.555-11.644 29.686 0 4.143 3.358 7.5 7.5 7.5z" fill="#ffcb63"/><path d="m361.001 65c4.142 0 7.5-3.357 7.5-7.5 0-9.869 3.688-14.479 8.356-20.314 5.188-6.484 11.644-14.555 11.644-29.686 0-4.143-3.358-7.5-7.5-7.5s-7.5 3.357-7.5 7.5c0 9.869-3.688 14.479-8.356 20.314-5.188 6.484-11.644 14.555-11.644 29.686 0 4.143 3.358 7.5 7.5 7.5z" fill="#ffe2a8"/></g></svg>